<svg xmlns="http://www.w3.org/2000/svg" viewBox="0 0 400 400" fill="none" stroke="currentColor" stroke-width="18" stroke-linecap="round" stroke-linejoin="round">
  <!-- Summer leaf outline and veins - line version for sidebar -->
  <g>
    <!-- Main leaf shape -->
    <path d="m123.4,307.4c-26.4,18.2 -43.9,31.4 -43.9,49.9c0,8.4 0,16.2 -0.1,23.5c-0.5,1.2 -0.9,2.3 -1.4,3.6c-3.4,-75.6 -10.3,-113.3 -11,-125.7c-2.7,-50.7 15.4,-118 76.3,-142.3c-23.9,55 -44.3,119.2 -19.9,191z"/>
    
    <!-- Leaf veins -->
    <path d="m178.5,267.4c-20.3,16.6 -39.3,29.2 -55,40c-24.5,-71.8 -4.1,-136 19.9,-191c6.2,-2.5 12.8,-4.5 19.9,-6c6.5,-1.4 12.8,-3.1 18.9,-5c-15.7,40.3 -22.1,109.7 -3.7,162z"/>
    
    <path d="m213.8,235.1l-0.6,0.6c-11.8,12 -23.5,22.4 -34.8,31.6c-18.4,-52.3 -11.9,-121.6 3.7,-162c24.2,-7.6 45,-19.1 61.8,-31.6c4.1,38.6 6.6,122.6 -30.1,161.4z"/>
    
    <path d="m289.2,18.9c-1.9,50.7 -11.1,139.9 -49.8,187.6c-8.5,10.4 -17,19.9 -25.5,28.6c36.6,-38.8 34.1,-122.8 30.1,-161.3c25.1,-18.9 41,-40.2 45.2,-54.9z"/>
    
    <path d="m337.1,135.4c-37.8,101.9 -123.8,100.4 -123.8,100.4l0.6,-0.6c8.5,-8.7 17,-18.1 25.5,-28.6c38.8,-47.7 47.9,-136.9 49.8,-187.6c0.6,-2.2 1,-4.2 1.1,-6.1c7.2,8 36,61.5 46.8,122.5z"/>
    
    <path d="m312.7,270.4c-57,9.8 -134.2,-3.1 -134.2,-3.1c11.3,-9.2 23,-19.6 34.8,-31.6c0,0 86,1.5 123.8,-100.4c8.2,46.4 5.9,97 -24.4,135.1z"/>
    
    <path d="m312.7,270.4c-9.2,11.6 -21.1,22.1 -36.1,30.9c-12.3,6.9 -23.7,12.8 -34.4,17.9c-61.1,3.7 -118.8,-11.8 -118.8,-11.8c15.8,-10.8 34.7,-23.5 55,-40c0.1,0 77.3,12.9 134.3,3z"/>
    
    <path d="m242.2,319.2c-115.4,54.9 -143.3,12.5 -162.8,61.6c0,-7.3 0.1,-15.1 0.1,-23.5c0,-18.5 17.5,-31.7 43.9,-49.9c0,0 57.7,15.5 118.8,11.8z"/>
  </g>
</svg>
